<?xml version="1.0" encoding="UTF-8" standalone="no" ?>
<!DOCTYPE svg PUBLIC "-//W3C//DTD SVG 1.1//EN" "http://www.w3.org/Graphics/SVG/1.1/DTD/svg11.dtd">
<svg xmlns="http://www.w3.org/2000/svg" xmlns:xlink="http://www.w3.org/1999/xlink" version="1.1" width="1080" height="1080" viewBox="0 0 1080 1080" xml:space="preserve">
<desc>Created with Fabric.js 5.2.4</desc>
<defs>
</defs>
<g transform="matrix(1 0 0 1 540 540)" id="fe00493b-9e01-4e8e-8861-90a69f59fa6a"  >
<rect style="stroke: none; stroke-width: 1; stroke-dasharray: none; stroke-linecap: butt; stroke-dashoffset: 0; stroke-linejoin: miter; stroke-miterlimit: 4; fill: rgb(255,255,255); fill-rule: nonzero; opacity: 1; visibility: hidden;" vector-effect="non-scaling-stroke"  x="-540" y="-540" rx="0" ry="0" width="1080" height="1080" />
</g>
<g transform="matrix(1 0 0 1 540 540)" id="fe01d116-3784-4815-b56e-41865668e14a"  >
</g>
<g transform="matrix(67.5 0 0 67.5 540 540)"  >
<path style="stroke: none; stroke-width: 1; stroke-dasharray: none; stroke-linecap: butt; stroke-dashoffset: 0; stroke-linejoin: miter; stroke-miterlimit: 4; fill: rgb(0,0,0); fill-rule: nonzero; opacity: 1;"  transform=" translate(-8, -8)" d="M 8 1 C 4.134006751184446 1 1 4.134006751184446 1 8 C 1 11.865993248815554 4.134006751184446 15 8 15 C 11.865993248815554 15 15 11.865993248815554 15 8 C 15 4.134006751184446 11.865993248815554 1 8 1 z M 3 8 C 3 6.918148932210805 3.350889359326482 5.8654808542313575 3.999999999999999 5.000000000000002 L 4.55 5.55 C 4.837517185339533 5.831822953051459 4.999673958494449 6.21739572477537 5 6.619999999999999 L 5 7.69 C 5.000175052039881 7.888845350309499 5.079307512624044 8.079482641716798 5.22 8.22 L 5.779999999999999 8.780000000000001 C 5.920517358283202 8.920692487375957 6.111154649690501 8.99982494796012 6.31 9.000000000000002 L 7 9.000000000000002 L 7 9.690000000000001 C 7.000175052039881 9.888845350309499 7.079307512624044 10.079482641716798 7.22 10.22 L 7.779999999999999 10.780000000000001 C 7.920692487375955 10.920517358283204 7.999824947960117 11.111154649690503 7.999999999999999 11.31 L 7.999999999999999 13 C 5.238576250846032 13 2.999999999999999 10.761423749153966 2.999999999999999 8 z M 9.24 12.83 L 11.24 10.370000000000001 C 11.42270414526149 10.143393530285273 11.457788023070227 9.831536838652045 11.33 9.57 L 10.75 8.41 C 10.607820489107212 8.13237805627987 10.310447706657534 7.969814268540714 10 8 L 7 8 L 7 7.81 C 7.001944859502581 7.619472606955094 7.1099339765644505 7.445918668819947 7.28 7.359999999999999 L 7.66 7.169999999999999 C 7.87324561201799 7.059689425341598 8.12675438798201 7.059689425341598 8.34 7.169999999999999 L 9 7.5 L 9.38 6.8 C 9.459575212148783 6.652577574686385 9.500838163513107 6.487525769229087 9.5 6.32 L 9.5 5.470000000000001 C 9.500618597162589 5.273164598015648 9.575633610235029 5.0838409935947295 9.71 4.940000000000001 L 10.780000000000001 3.8500000000000005 C 12.4197448347802 4.9466909766863285 13.261396477383933 6.9049921926392654 12.92868341807137 8.849419162647763 C 12.595970358758809 10.79384613265626 11.151091866304318 12.360896636610349 9.240000000000009 12.849999999999998 z" stroke-linecap="round" />
</g>
</svg>