<?xml version="1.0" encoding="UTF-8" standalone="no" ?>
<!DOCTYPE svg PUBLIC "-//W3C//DTD SVG 1.1//EN" "http://www.w3.org/Graphics/SVG/1.1/DTD/svg11.dtd">
<svg xmlns="http://www.w3.org/2000/svg" xmlns:xlink="http://www.w3.org/1999/xlink" version="1.1" width="1080" height="1080" viewBox="0 0 1080 1080" xml:space="preserve">
<desc>Created with Fabric.js 5.2.4</desc>
<defs>
</defs>
<rect x="0" y="0" width="100%" height="100%" fill="transparent"></rect>
<g transform="matrix(1 0 0 1 540 540)" id="a593c149-299a-4555-b071-55cb0591224c"  >
<rect style="stroke: none; stroke-width: 1; stroke-dasharray: none; stroke-linecap: butt; stroke-dashoffset: 0; stroke-linejoin: miter; stroke-miterlimit: 4; fill: rgb(255,255,255); fill-rule: nonzero; opacity: 1; visibility: hidden;" vector-effect="non-scaling-stroke"  x="-540" y="-540" rx="0" ry="0" width="1080" height="1080" />
</g>
<g transform="matrix(1 0 0 1 540 540)" id="1b3b278a-01a4-4231-ae2f-3edeb92367cd"  >
</g>
<g transform="matrix(45 0 0 45 540 540)"  >
<path style="stroke: none; stroke-width: 1; stroke-dasharray: none; stroke-linecap: butt; stroke-dashoffset: 0; stroke-linejoin: miter; stroke-miterlimit: 4; fill: rgb(0,0,0); fill-rule: nonzero; opacity: 1;"  transform=" translate(-12, -13)" d="M 16 4 L 8 4 C 4.134006751184446 4 1 7.134006751184446 1 11 C 1 14.865993248815554 4.134006751184446 18 8 18 L 12 18 L 12 22 L 20.16 16.61 C 21.968995685826744 15.318561933074463 23.03011914717687 13.22246946188637 23 11.000000000000002 C 23 7.134006751184446 19.865993248815556 4 16 4 z M 8 12.25 C 7.3096440627115085 12.25 6.75 11.690355937288492 6.75 11 C 6.75 10.309644062711508 7.3096440627115085 9.75 8 9.75 C 8.690355937288492 9.75 9.25 10.309644062711508 9.25 11 C 9.25 11.690355937288492 8.690355937288492 12.25 8 12.25 z M 12 12.25 C 11.309644062711508 12.25 10.75 11.690355937288492 10.75 11 C 10.75 10.309644062711508 11.309644062711508 9.75 12 9.75 C 12.690355937288492 9.75 13.25 10.309644062711508 13.25 11 C 13.25 11.690355937288492 12.690355937288492 12.25 12 12.25 z M 16 12.25 C 15.309644062711508 12.25 14.75 11.690355937288492 14.75 11 C 14.75 10.309644062711508 15.309644062711508 9.75 16 9.75 C 16.69035593728849 9.75 17.25 10.309644062711508 17.25 11 C 17.25 11.690355937288492 16.69035593728849 12.25 16 12.25 z" stroke-linecap="round" />
</g>
</svg>